<svg xmlns="http://www.w3.org/2000/svg" width="720" height="720" viewBox="0 0 720 720">
<rect width="720" height="720" fill="white"/>
<g stroke-linecap="round" stroke-linejoin="round"><line x1="110" y1="115" x2="220" y2="115" stroke="#111" stroke-width="4"/><line x1="220" y1="115" x2="330" y2="115" stroke="#111" stroke-width="4"/><line x1="330" y1="115" x2="440" y2="115" stroke="#111" stroke-width="4"/><line x1="440" y1="115" x2="550" y2="115" stroke="#111" stroke-width="4"/><line x1="110" y1="225" x2="220" y2="225" stroke="#111" stroke-width="4"/><line x1="220" y1="225" x2="330" y2="225" stroke="#111" stroke-width="4"/><line x1="330" y1="225" x2="440" y2="225" stroke="#111" stroke-width="4"/><line x1="440" y1="225" x2="550" y2="225" stroke="#111" stroke-width="4"/><line x1="110" y1="335" x2="220" y2="335" stroke="#111" stroke-width="4"/><line x1="220" y1="335" x2="330" y2="335" stroke="#111" stroke-width="4"/><line x1="330" y1="335" x2="440" y2="335" stroke="#111" stroke-width="4"/><line x1="440" y1="335" x2="550" y2="335" stroke="#111" stroke-width="4"/><line x1="110" y1="445" x2="220" y2="445" stroke="#111" stroke-width="4"/><line x1="220" y1="445" x2="330" y2="445" stroke="#111" stroke-width="4"/><line x1="330" y1="445" x2="440" y2="445" stroke="#111" stroke-width="4"/><line x1="440" y1="445" x2="550" y2="445" stroke="#111" stroke-width="4"/><line x1="110" y1="555" x2="220" y2="555" stroke="#111" stroke-width="4"/><line x1="220" y1="555" x2="330" y2="555" stroke="#111" stroke-width="4"/><line x1="330" y1="555" x2="440" y2="555" stroke="#111" stroke-width="4"/><line x1="440" y1="555" x2="550" y2="555" stroke="#111" stroke-width="4"/><line x1="110" y1="115" x2="110" y2="225" stroke="#111" stroke-width="4"/><line x1="110" y1="225" x2="110" y2="335" stroke="#111" stroke-width="4"/><line x1="110" y1="335" x2="110" y2="445" stroke="#111" stroke-width="4"/><line x1="110" y1="445" x2="110" y2="555" stroke="#111" stroke-width="4"/><line x1="220" y1="115" x2="220" y2="225" stroke="#111" stroke-width="4"/><line x1="220" y1="225" x2="220" y2="335" stroke="#111" stroke-width="4"/><line x1="220" y1="335" x2="220" y2="445" stroke="#111" stroke-width="4"/><line x1="220" y1="445" x2="220" y2="555" stroke="#111" stroke-width="4"/><line x1="330" y1="115" x2="330" y2="225" stroke="#111" stroke-width="4"/><line x1="330" y1="225" x2="330" y2="335" stroke="#111" stroke-width="4"/><line x1="330" y1="335" x2="330" y2="445" stroke="#111" stroke-width="4"/><line x1="330" y1="445" x2="330" y2="555" stroke="#111" stroke-width="4"/><line x1="440" y1="115" x2="440" y2="225" stroke="#111" stroke-width="4"/><line x1="440" y1="225" x2="440" y2="335" stroke="#111" stroke-width="4"/><line x1="440" y1="335" x2="440" y2="445" stroke="#111" stroke-width="4"/><line x1="440" y1="445" x2="440" y2="555" stroke="#111" stroke-width="4"/><line x1="550" y1="115" x2="550" y2="225" stroke="#111" stroke-width="4"/><line x1="550" y1="225" x2="550" y2="335" stroke="#111" stroke-width="4"/><line x1="550" y1="335" x2="550" y2="445" stroke="#111" stroke-width="4"/><line x1="550" y1="445" x2="550" y2="555" stroke="#111" stroke-width="4"/></g>
</svg>