<svg xmlns="http://www.w3.org/2000/svg" width="720" height="720" viewBox="0 0 720 720">
<rect width="720" height="720" fill="white"/>
<g stroke-linecap="round" stroke-linejoin="round"><line x1="110" y1="115" x2="172" y2="115" stroke="#111" stroke-width="4"/><line x1="172" y1="115" x2="234" y2="115" stroke="#111" stroke-width="4"/><line x1="110" y1="177" x2="172" y2="177" stroke="#111" stroke-width="4"/><line x1="172" y1="177" x2="234" y2="177" stroke="#111" stroke-width="4"/><line x1="234" y1="177" x2="296" y2="177" stroke="#111" stroke-width="4"/><line x1="110" y1="239" x2="172" y2="239" stroke="#111" stroke-width="4"/><line x1="172" y1="239" x2="234" y2="239" stroke="#111" stroke-width="4"/><line x1="234" y1="239" x2="296" y2="239" stroke="#111" stroke-width="4"/><line x1="110" y1="301" x2="172" y2="301" stroke="#111" stroke-width="4"/><line x1="172" y1="301" x2="234" y2="301" stroke="#111" stroke-width="4"/><line x1="234" y1="301" x2="296" y2="301" stroke="#111" stroke-width="4"/><line x1="110" y1="363" x2="172" y2="363" stroke="#111" stroke-width="4"/><line x1="172" y1="363" x2="234" y2="363" stroke="#111" stroke-width="4"/><line x1="234" y1="363" x2="296" y2="363" stroke="#111" stroke-width="4"/><line x1="110" y1="425" x2="172" y2="425" stroke="#111" stroke-width="4"/><line x1="172" y1="425" x2="234" y2="425" stroke="#111" stroke-width="4"/><line x1="234" y1="425" x2="296" y2="425" stroke="#111" stroke-width="4"/><line x1="110" y1="487" x2="172" y2="487" stroke="#111" stroke-width="4"/><line x1="172" y1="487" x2="234" y2="487" stroke="#111" stroke-width="4"/><line x1="234" y1="487" x2="296" y2="487" stroke="#111" stroke-width="4"/><line x1="110" y1="549" x2="172" y2="549" stroke="#111" stroke-width="4"/><line x1="172" y1="549" x2="234" y2="549" stroke="#111" stroke-width="4"/><line x1="234" y1="549" x2="296" y2="549" stroke="#111" stroke-width="4"/><line x1="110" y1="115" x2="110" y2="177" stroke="#111" stroke-width="4"/><line x1="110" y1="177" x2="110" y2="239" stroke="#111" stroke-width="4"/><line x1="110" y1="239" x2="110" y2="301" stroke="#111" stroke-width="4"/><line x1="110" y1="301" x2="110" y2="363" stroke="#111" stroke-width="4"/><line x1="110" y1="363" x2="110" y2="425" stroke="#111" stroke-width="4"/><line x1="110" y1="425" x2="110" y2="487" stroke="#111" stroke-width="4"/><line x1="110" y1="487" x2="110" y2="549" stroke="#111" stroke-width="4"/><line x1="172" y1="115" x2="172" y2="177" stroke="#111" stroke-width="4"/><line x1="172" y1="177" x2="172" y2="239" stroke="#111" stroke-width="4"/><line x1="172" y1="239" x2="172" y2="301" stroke="#111" stroke-width="4"/><line x1="172" y1="301" x2="172" y2="363" stroke="#111" stroke-width="4"/><line x1="172" y1="363" x2="172" y2="425" stroke="#111" stroke-width="4"/><line x1="172" y1="425" x2="172" y2="487" stroke="#111" stroke-width="4"/><line x1="172" y1="487" x2="172" y2="549" stroke="#111" stroke-width="4"/><line x1="234" y1="115" x2="234" y2="177" stroke="#111" stroke-width="4"/><line x1="234" y1="177" x2="234" y2="239" stroke="#111" stroke-width="4"/><line x1="234" y1="239" x2="234" y2="301" stroke="#111" stroke-width="4"/><line x1="234" y1="301" x2="234" y2="363" stroke="#111" stroke-width="4"/><line x1="234" y1="363" x2="234" y2="425" stroke="#111" stroke-width="4"/><line x1="234" y1="425" x2="234" y2="487" stroke="#111" stroke-width="4"/><line x1="234" y1="487" x2="234" y2="549" stroke="#111" stroke-width="4"/><line x1="296" y1="177" x2="296" y2="239" stroke="#111" stroke-width="4"/><line x1="296" y1="239" x2="296" y2="301" stroke="#111" stroke-width="4"/><line x1="296" y1="301" x2="296" y2="363" stroke="#111" stroke-width="4"/><line x1="296" y1="363" x2="296" y2="425" stroke="#111" stroke-width="4"/><line x1="296" y1="425" x2="296" y2="487" stroke="#111" stroke-width="4"/><line x1="296" y1="487" x2="296" y2="549" stroke="#111" stroke-width="4"/></g>
</svg>